<svg version="1.1" xmlns="http://www.w3.org/2000/svg" xmlns:xlink="http://www.w3.org/1999/xlink"viewBox="0 0 134 108" xml:space="preserve">
<g>
	<g>
		<path d="M29.629,39.264c0,2.688-0.558,4.748-1.674,6.177c-1.115,1.43-2.725,2.145-4.827,2.145c-2.06,0-3.812-0.492-5.256-1.476
			v-5.292c1.769,1.403,3.391,2.105,4.868,2.105c0.841,0,1.474-0.282,1.9-0.846c0.426-0.564,0.639-1.331,0.639-2.302
			c0-0.957-0.254-1.833-0.761-2.626s-1.342-1.675-2.506-2.646c-1.014-0.853-1.782-1.669-2.305-2.449
			c-0.523-0.78-0.928-1.655-1.213-2.626c-0.286-0.971-0.429-2.098-0.429-3.384c0-2.465,0.563-4.419,1.689-5.862
			c1.127-1.442,2.639-2.164,4.537-2.164c1.811,0,3.552,0.617,5.224,1.849l-1.456,4.289c-0.518-0.367-1.06-0.695-1.625-0.983
			c-0.566-0.289-1.173-0.433-1.819-0.433c-0.712,0-1.259,0.286-1.642,0.856S22.4,24.942,22.4,25.926
			c0,0.971,0.229,1.817,0.688,2.538c0.458,0.722,1.259,1.542,2.401,2.459c1.542,1.259,2.617,2.545,3.227,3.856
			C29.324,36.09,29.629,37.585,29.629,39.264z"/>
		<path d="M43.198,47.191H32.54V18.431h10.658v4.623h-6.259v6.846h5.806v4.643h-5.806v7.967h6.259V47.191z"/>
		<path d="M51.042,35.998v11.193h-4.399V18.431H52.4c2.437,0,4.234,0.702,5.394,2.105c1.158,1.404,1.738,3.548,1.738,6.433
			c0,3.633-1.009,6.17-3.024,7.613l4.545,12.61h-4.707L52.61,35.998H51.042z M51.042,31.395h1.132c1.035,0,1.779-0.357,2.231-1.072
			c0.453-0.715,0.68-1.78,0.68-3.197c0-1.469-0.24-2.515-0.72-3.138c-0.48-0.623-1.221-0.935-2.224-0.935h-1.1V31.395z"/>
		<path d="M73.376,18.431h4.431l-5.562,28.761h-5.596l-5.531-28.761h4.432l3.089,17.567c0.28,1.495,0.555,3.639,0.824,6.433
			c0.227-2.374,0.512-4.518,0.857-6.433L73.376,18.431z"/>
		<path d="M80.686,47.191V18.431h4.14v28.761H80.686z"/>
		<path d="M97.666,22.7c-1.262,0-2.256,0.898-2.983,2.695c-0.729,1.797-1.092,4.295-1.092,7.495c0,6.663,1.429,9.993,4.285,9.993
			c1.251,0,2.561-0.484,3.931-1.455v4.761c-1.154,0.931-2.631,1.396-4.432,1.396c-2.663,0-4.709-1.289-6.138-3.865
			c-1.429-2.577-2.143-6.2-2.143-10.869s0.736-8.308,2.208-10.918s3.517-3.915,6.137-3.915c0.862,0,1.69,0.145,2.482,0.433
			c0.793,0.289,1.642,0.793,2.547,1.515l-1.455,4.348c-0.485-0.407-1.003-0.777-1.553-1.112S98.312,22.7,97.666,22.7z"/>
		<path d="M115.812,47.191h-10.658V18.431h10.658v4.623h-6.259v6.846h5.806v4.643h-5.806v7.967h6.259V47.191z"/>
	</g>
	<g>
		<path fill="#666666" d="M19.035,88.764V58.663h4.771v25.2h6.614v4.9H19.035z"/>
		<path fill="#666666" d="M34.333,88.764V58.663h4.49v30.101H34.333z"/>
		<path fill="#666666" d="M62.208,88.764h-5.824L48.455,66.96h-0.229c0.292,1.661,0.438,3.445,0.438,5.354v16.45h-4.421V58.663
			h5.859l7.859,21.577h0.193c-0.223-1.441-0.334-3.157-0.334-5.147v-16.43h4.386V88.764z"/>
		<path fill="#666666" d="M78.295,88.764H66.734V58.663h11.561v4.838h-6.789v7.165h6.299v4.859h-6.299v8.338h6.789V88.764z"/>
		<path d="M97.803,58.663V78.14c0,3.583-0.69,6.317-2.07,8.205c-1.38,1.887-3.374,2.831-5.982,2.831c-2.55,0-4.49-0.938-5.824-2.811
			c-1.333-1.874-1.999-4.643-1.999-8.308V58.663h4.736v19.806c0,3.83,1.081,5.745,3.245,5.745c1.006,0,1.783-0.487,2.333-1.462
			s0.825-2.361,0.825-4.159v-19.93H97.803z"/>
		<path d="M116.204,67.928c0,3.198-0.687,5.651-2.061,7.36c-1.375,1.709-3.359,2.563-5.956,2.563h-1.193v10.912h-4.771V58.663h6.509
			C113.714,58.663,116.204,61.751,116.204,67.928z M106.994,72.992h0.913c1.169,0,2.04-0.377,2.613-1.132s0.859-1.99,0.859-3.706
			c0-1.578-0.263-2.749-0.789-3.511s-1.339-1.143-2.438-1.143h-1.158V72.992z"/>
	</g>
	<line fill="none" stroke="#000000" stroke-width="3" stroke-miterlimit="10" x1="17" y1="53.5" x2="117" y2="53.5"/>
	<polyline fill="none" stroke="#000000" stroke-width="4" stroke-miterlimit="10" points="9,22 9,9 23,9 	"/>
	<polyline fill="none" stroke="#000000" stroke-width="4" stroke-miterlimit="10" points="111,9 124,9 124,22 	"/>
	<polyline fill="none" stroke="#000000" stroke-width="4" stroke-miterlimit="10" points="124,85 124,98 111,98 	"/>
	<polyline fill="none" stroke="#000000" stroke-width="4" stroke-miterlimit="10" points="23,98 9,98 9,85 	"/>
</g>
</svg>
